<?xml version="1.0" encoding="UTF-8"?>
<!-- Generator: Adobe Illustrator 27.0.0, SVG Export Plug-In . SVG Version: 6.00 Build 0)  -->
<svg version="1.1" id="svg" xmlns:sodipodi="http://sodipodi.sourceforge.net/DTD/sodipodi-0.dtd" xmlns:dc="http://purl.org/dc/elements/1.1/" xmlns:inkscape="http://www.inkscape.org/namespaces/inkscape" xmlns:rdf="http://www.w3.org/1999/02/22-rdf-syntax-ns#" xmlns:cc="http://creativecommons.org/ns#" xmlns:svg="http://www.w3.org/2000/svg" sodipodi:docname="rtg-logo-light_.svg" xmlns="http://www.w3.org/2000/svg" xmlns:xlink="http://www.w3.org/1999/xlink" x="0px" y="0px" viewBox="0 0 806.5 72.2" style="enable-background:new 0 0 806.5 72.2;" xml:space="preserve">
<style type="text/css">
	.st0{fill-opacity:0;}
	.st1{fill:#427EAE;}
	.st2{fill:#414042;}
</style>
<sodipodi:namedview bordercolor="#666666" borderopacity="1" gridtolerance="10" guidetolerance="10" id="namedview16" inkscape:current-layer="svg" inkscape:cx="501.60662" inkscape:cy="124.01456" inkscape:pageopacity="0" inkscape:pageshadow="2" inkscape:window-height="1044" inkscape:window-maximized="1" inkscape:window-width="1872" inkscape:window-x="0" inkscape:window-y="0" inkscape:zoom="1.0789474" objecttolerance="10" pagecolor="#ffffff" showgrid="false">
	</sodipodi:namedview>
<g>
	<path id="path4" class="st0" d="M57.6,11.1c0.1,0.1,0.2,0.2,0.3,0.3c1.6,1.4,3,2.9,4.3,4.6c0.2,0.2,0.3,0.4,0.5,0.7   c5.1,7.1,7.2,15.9,5.9,24.5c-1,6.2-3.6,11.7-7.7,16.5c-0.1,0.1-0.2,0.2-0.3,0.3c-1.4,1.6-2.9,3-4.6,4.3c-0.2,0.2-0.4,0.3-0.7,0.5   c-7.1,5.1-15.9,7.2-24.5,5.9c-6.2-1-11.7-3.6-16.5-7.7c-0.1-0.1-0.2-0.2-0.3-0.3c-1.6-1.4-3-2.9-4.3-4.6c-0.2-0.3-0.2-0.3-0.5-0.7   c-5.1-7.1-7.2-15.9-5.9-24.5c1-6.2,3.6-11.7,7.7-16.5c0.1-0.1,0.2-0.2,0.3-0.3c1.4-1.6,2.9-3,4.6-4.3c0.3-0.2,0.3-0.2,0.7-0.5   C29,0.3,46.1,1.1,57.6,11.1z"/>
	<path id="path6" class="st1" d="M35.9,0c0.2,0,0.3,0,0.5,0c2.9,0,5.6,0.2,8.4,1C45,1,45.1,1,45.3,1.1c1,0.3,2.1,0.6,3,1   c0.2,0.1,0.3,0.1,0.4,0.2c9.1,3.3,16.3,10.3,20.3,19.1c2,4.6,2.9,9.5,2.9,14.6c0,0.3,0,0.3,0,0.5c0,2.9-0.3,5.8-1,8.6   c0.3,0.1,0.5,0.3,0.8,0.4c1,0.5,1.9,1,2.9,1.5c0.4,0.2,0.8,0.4,1.3,0.7c2.5,1.3,4.9,2.6,7.4,3.9c1.3,0.7,2.6,1.4,3.9,2   c2.5,1.3,5,2.6,7.5,3.9c1,0.5,2.1,1.1,3.2,1.6c0.4,0.2,0.8,0.4,1.3,0.7c0.2,0.1,0.4,0.2,0.7,0.3c1.9,1,3.8,2,5.7,3   c-0.3,1-0.8,2-1.3,2.9c-0.1,0.2-0.2,0.3-0.2,0.4c-0.2,0.3-0.3,0.6-0.5,0.9c-0.3,0.5-0.5,0.9-0.7,1.4c-0.2,0.3-0.3,0.6-0.5,0.9   c-0.1,0.2-0.2,0.3-0.2,0.4c-0.4,0.8-0.8,1.5-1.3,2.2c-1.1-0.3-2.1-0.8-3.2-1.4c-0.2-0.1-0.4-0.2-0.5-0.3c-0.6-0.3-1.1-0.6-1.7-0.9   c-0.4-0.2-0.8-0.4-1.1-0.6c-2-1-4.1-2.1-6.1-3.2c-1.5-0.8-2.9-1.5-4.4-2.3c-2.5-1.3-5-2.6-7.5-3.9c-0.7-0.3-1.3-0.7-2-1   c-0.4-0.2-0.9-0.4-1.3-0.7c-0.3-0.2-0.3-0.2-0.7-0.3c-1.5-0.8-3-1.6-4.5-2.4c-0.6-0.3-0.6-0.3-1.3-0.5c-0.1,0.2-0.1,0.3-0.2,0.4   c-0.3,0.8-0.8,1.4-1.3,2.1c-0.1,0.1-0.2,0.3-0.3,0.4c-1.1,1.5-2.3,2.8-3.6,4.1c-0.1,0.1-0.2,0.2-0.3,0.3   c-6.6,6.5-15.7,9.9-24.9,9.9c-0.2,0-0.3,0-0.5,0c-2.9,0-5.6-0.2-8.4-1C27,71,26.8,71,26.7,71c-1-0.3-2.1-0.6-3-1   c-0.2-0.1-0.3-0.1-0.4-0.2C14.1,66.5,6.9,59.5,2.9,50.7C0.9,46.1,0,41.2,0,36.1c0-0.2,0-0.3,0-0.5c0-2.8,0.2-5.6,1-8.4   C1,27,1.1,26.9,1.1,26.7c0.3-1,0.6-2.1,1-3c0.1-0.2,0.1-0.3,0.2-0.4C5.5,14.1,12.6,7,21.3,2.9C25.9,0.9,30.8,0,35.9,0z M15.7,10   c-0.2,0.2-0.2,0.2-0.4,0.3C9.7,14.9,6,20.7,4,27.6c-0.1,0.3-0.2,0.5-0.2,0.8c-2.1,8.4-0.4,17.5,4,24.9c1,1.5,2.1,2.9,3.3,4.3   c0.1,0.1,0.2,0.2,0.3,0.3c1.4,1.6,2.9,3,4.6,4.3c0.2,0.2,0.4,0.3,0.7,0.5c7.1,5.1,15.9,7.2,24.5,5.9c6.2-1,11.7-3.6,16.5-7.7   c0.1-0.1,0.2-0.2,0.3-0.3c1.6-1.4,3-2.9,4.3-4.6c0.2-0.2,0.3-0.4,0.5-0.7c5.1-7.1,7.2-15.9,5.9-24.5c-1-6.2-3.6-11.7-7.7-16.5   c-0.1-0.1-0.2-0.2-0.3-0.3c-1.4-1.6-2.9-3-4.6-4.3c-0.2-0.2-0.4-0.3-0.7-0.5C43.8,0.9,26.9,0.7,15.7,10z"/>
	<g id="flowRoot831" transform="translate(-13.121951,-335.85366)">
		<path id="path912" class="st2" d="M31.2,387.9v-2.4c-1.7,0-2.7-0.4-2.7-2.3v-8.5c0-1.6-0.3-2.4-1.4-2.9c1-0.4,1.4-1.3,1.4-2.9    v-8.5c0-1.3,0.7-2.3,2.7-2.3v-2.4h-1.6c-2.4,0-4,1.6-4,4.2v9.9c0,0.5-0.4,0.9-1.8,0.9v2.4c1.4,0.1,1.8,0.3,1.8,0.9v9.8    c0,2.6,1.6,4.1,4,4.1L31.2,387.9z"/>
		<path id="path914" class="st2" d="M68.4,387.9c2.4,0,4-1.5,4-4.1V374c0-0.6,0.4-0.9,1.8-0.9v-2.4c-1.4-0.1-1.8-0.3-1.8-0.9v-9.9    c0-2.7-1.6-4.2-4-4.2h-1.6v2.4c2.1,0,2.7,1,2.7,2.3v8.5c0,1.6,0.3,2.5,1.4,2.9c-1.1,0.4-1.4,1.3-1.4,2.9v8.5c0,1.8-1,2.3-2.7,2.3    v2.4L68.4,387.9z"/>
	</g>
	<g id="flowRoot839" transform="translate(51.95122,-439.02439)">
		<path id="path905" class="st2" d="M-24.5,475.2c0-1.8-1.4-3.2-3.3-3.2c-1.8,0-3.2,1.4-3.2,3.2s1.4,3.2,3.2,3.2    C-25.9,478.4-24.5,477-24.5,475.2z"/>
		<path id="path907" class="st2" d="M-12.2,475.2c0-1.8-1.4-3.2-3.3-3.2c-1.8,0-3.2,1.4-3.2,3.2s1.4,3.2,3.2,3.2    C-13.6,478.4-12.2,477-12.2,475.2z"/>
		<path id="path909" class="st2" d="M0.1,475.2c0-1.8-1.4-3.2-3.3-3.2c-1.8,0-3.2,1.4-3.2,3.2s1.4,3.2,3.2,3.2    C-1.3,478.4,0.1,477,0.1,475.2z"/>
	</g>
</g>
<g>
	<path class="st1" d="M177.9,71.5l-17.8-19.8h-26.3v-11h29.3c8.8,0,13.4-5.1,13.4-14.3s-5-13.7-13.4-13.7h-38.2v58.8h-12.2V0.3h50.4   c16,0,25.5,10.1,25.5,25.9c0,11.7-5.4,20.1-14.5,23.6l21.1,21.6h-17.3V71.5z"/>
	<path class="st1" d="M200.1,71.5V18h47v9.4h-37.9v34.7h37.9v9.3h-47V71.5z M216,48.2v-7.9h29.2v7.9H216z"/>
	<path class="st1" d="M255.1,71.5v-9.4h39.4c4.9,0,7.6-2.8,7.6-6.9c0-4.6-2.7-6.9-7.6-6.9h-24.2c-10,0-16.1-6.4-16.1-15.2   c0-8.6,5.7-15,16.2-15h37.8v9.4h-37.8c-4.2,0-6.6,2.5-6.6,6.5s2.5,6.4,6.6,6.4h24.1c10.7,0,16.4,5.1,16.4,15.4   c0,9-5.3,15.6-16.4,15.6h-39.4V71.5z"/>
	<path class="st1" d="M335.8,71.5V27.4h-20v-9.3h49.2v9.3h-20v44.1H335.8z"/>
	<path class="st1" d="M395,71.5V12.7h-26.7V0.3H434v12.5h-26.7v58.8H395z"/>
	<path class="st1" d="M440.5,71.5V18h47v9.4h-37.9v34.7h37.9v9.3h-47V71.5z M456.4,48.2v-7.9h29.2v7.9H456.4z"/>
	<path class="st1" d="M495.5,71.5v-9.4H535c4.9,0,7.6-2.8,7.6-6.9c0-4.6-2.7-6.9-7.6-6.9h-24.2c-10,0-16.1-6.4-16.1-15.2   c0-8.6,5.7-15,16.2-15h37.9v9.4h-37.8c-4.2,0-6.6,2.5-6.6,6.5s2.5,6.4,6.6,6.4h24.1c10.7,0,16.4,5.1,16.4,15.4   c0,9-5.3,15.6-16.4,15.6h-39.5V71.5z"/>
	<path class="st1" d="M576.1,71.5V27.4h-20v-9.3h49.2v9.3h-20v44.1H576.1z"/>
	<path class="st1" d="M645.1,71.5c-19.6,0-34.1-15.7-34.1-36.3c0-20.9,14.5-34.9,34.1-34.9h38v12.5h-38c-12.6,0-21.8,9.5-21.8,23.1   c0,13.5,9.2,23.3,21.8,23.3h30.1V40.6h-31.8V30.1h44.1v41.4H645.1z"/>
	<path class="st1" d="M697.2,71.5V18h47v9.4h-37.9v34.7h37.9v9.3h-47V71.5z M713.1,48.2v-7.9h29.2v7.9H713.1z"/>
	<path class="st1" d="M760.8,32.4v39.1H752V23c0-3.5,1.8-5.6,4.7-5.6c1.4,0,2.5,0.5,3.9,1.9l37.1,37.5V17.6h8.8v49   c0,3.6-1.9,5.6-4.5,5.6c-1.5,0-2.9-0.6-4.2-1.9L760.8,32.4z"/>
</g>
</svg>